<?xml version="1.0" encoding="UTF-8" standalone="no"?>
<svg width="45px" height="58px" viewBox="0 0 45 58" version="1.1" xmlns="http://www.w3.org/2000/svg" xmlns:xlink="http://www.w3.org/1999/xlink" xmlns:sketch="http://www.bohemiancoding.com/sketch/ns">
    <!-- Generator: Sketch Beta 3.3.2 (12041) - http://www.bohemiancoding.com/sketch -->
    <title>happy-cupcake</title>
    <desc>Created with Sketch Beta.</desc>
    <defs></defs>
    <g id="Page-1" stroke="none" stroke-width="1" fill="none" fill-rule="evenodd" sketch:type="MSPage">
        <g id="happy-cupcake" sketch:type="MSLayerGroup">
            <path d="M39.981,57.409 L5.632,57.409 L3.632,32.094 L41.981,32.094 L39.981,57.409" id="Fill-1" fill="#5FA0D6" sketch:type="MSShapeGroup"></path>
            <path d="M23.002,6.175 C23.139,4.784 23.894,3.625 24.859,2.793 C25.819,1.962 26.995,1.489 27.816,1.459 C28.092,1.447 28.306,1.213 28.294,0.937 C28.283,0.662 28.049,0.448 27.773,0.46 C26.644,0.514 25.329,1.077 24.207,2.035 C23.092,2.993 22.176,4.375 22.007,6.077 C21.98,6.351 22.18,6.596 22.455,6.624 C22.73,6.651 22.975,6.45 23.002,6.175" id="Fill-2" fill="#D83830" sketch:type="MSShapeGroup"></path>
            <path d="M28.104,7.644 C28.104,10.57 25.732,12.942 22.807,12.942 C19.88,12.942 17.509,10.57 17.509,7.644 C17.509,4.718 19.88,2.346 22.807,2.346 C25.732,2.346 28.104,4.718 28.104,7.644" id="Fill-3" fill="#EF4B3A" sketch:type="MSShapeGroup"></path>
            <path d="M33.723,19.403 L11.89,19.403 C9.229,19.403 7.072,17.246 7.072,14.585 C7.072,11.924 9.229,9.767 11.89,9.767 L33.723,9.767 C36.384,9.767 38.541,11.924 38.541,14.585 C38.541,17.246 36.384,19.403 33.723,19.403" id="Fill-4" fill="#ECEDEC" sketch:type="MSShapeGroup"></path>
            <path d="M38.095,12.585 C37.334,14.245 35.668,15.403 33.723,15.403 L11.89,15.403 C9.945,15.403 8.279,14.245 7.518,12.585 C7.238,13.196 7.072,13.87 7.072,14.585 C7.072,14.939 7.11,15.283 7.182,15.615 C7.295,16.136 7.493,16.625 7.76,17.068 C7.961,17.043 8.165,17.03 8.373,17.03 L37.24,17.03 C37.447,17.03 37.652,17.043 37.853,17.068 C38.29,16.343 38.541,15.494 38.541,14.585 C38.541,13.87 38.375,13.196 38.095,12.585" id="Fill-5" fill="#DBDCD9" sketch:type="MSShapeGroup"></path>
            <path d="M16.542,15.994 C16.542,17.392 15.409,18.526 14.011,18.526 C12.613,18.526 11.479,17.392 11.479,15.994 C11.479,14.596 12.613,13.463 14.011,13.463 C15.409,13.463 16.542,14.596 16.542,15.994" id="Fill-6" fill="#736357" sketch:type="MSShapeGroup"></path>
            <path d="M29.071,15.994 C29.071,17.392 30.204,18.526 31.602,18.526 C33,18.526 34.133,17.392 34.133,15.994 C34.133,14.596 33,13.463 31.602,13.463 C30.204,13.463 29.071,14.596 29.071,15.994" id="Fill-7" fill="#736357" sketch:type="MSShapeGroup"></path>
            <path d="M37.24,26.666 L8.373,26.666 C5.712,26.666 3.555,24.509 3.555,21.848 C3.555,19.187 5.712,17.03 8.373,17.03 L37.24,17.03 C39.901,17.03 42.058,19.187 42.058,21.848 C42.058,24.509 39.901,26.666 37.24,26.666" id="Fill-8" fill="#ECEDEC" sketch:type="MSShapeGroup"></path>
            <path d="M3.555,21.825 L3.555,21.827 L3.555,21.825 M42.058,21.825 L42.058,21.827 L42.058,21.825" id="Fill-9" fill="#ECECEC" sketch:type="MSShapeGroup"></path>
            <path d="M41.34,19.348 C40.494,20.733 38.982,21.666 37.24,21.666 L8.373,21.666 C6.631,21.666 5.119,20.733 4.273,19.348 C3.83,20.072 3.56,20.914 3.555,21.825 L3.555,21.827 L3.555,21.848 C3.555,23.088 4.024,24.219 4.794,25.073 C5.007,25.045 5.225,25.03 5.446,25.03 L40.167,25.03 C40.388,25.03 40.606,25.045 40.819,25.073 C41.589,24.219 42.058,23.088 42.058,21.848 L42.058,21.827 L42.058,21.825 C42.053,20.914 41.783,20.072 41.34,19.348" id="Fill-10" fill="#DBDCD9" sketch:type="MSShapeGroup"></path>
            <path d="M5.474,55.409 L5.474,55.409 L5.632,57.409 L5.474,55.409" id="Fill-11" fill="#D9DAD8" sketch:type="MSShapeGroup"></path>
            <path d="M3.813,34.382 L4.135,38.462 C4.555,38.581 4.988,38.666 5.446,38.666 L32.304,38.666 L30.981,55.409 L5.474,55.409 L5.632,57.409 L39.981,57.409 L41.8,34.382 C41.29,34.566 40.74,34.666 40.167,34.666 L5.446,34.666 C4.873,34.666 4.323,34.566 3.813,34.382" id="Fill-12" fill="#598EB8" sketch:type="MSShapeGroup"></path>
            <path d="M40.167,34.666 L5.446,34.666 C2.785,34.666 0.628,32.509 0.628,29.848 C0.628,27.187 2.785,25.03 5.446,25.03 L40.167,25.03 C42.828,25.03 44.985,27.187 44.985,29.848 C44.985,32.509 42.828,34.666 40.167,34.666" id="Fill-13" fill="#736357" sketch:type="MSShapeGroup"></path>
            <path d="M41.224,27.136 L4.389,27.136 C4.113,27.136 3.889,27.36 3.889,27.636 C3.889,27.912 4.113,28.136 4.389,28.136 L41.224,28.136 C41.5,28.136 41.724,27.912 41.724,27.636 C41.724,27.36 41.5,27.136 41.224,27.136" id="Fill-14" fill="#817368" sketch:type="MSShapeGroup"></path>
            <path d="M25.017,48.201 C24.892,48.201 24.768,48.248 24.671,48.341 C24.663,48.349 23.807,49.143 22.763,49.143 C21.743,49.143 21.032,48.384 21.016,48.366 C20.918,48.257 20.782,48.201 20.646,48.201 C20.527,48.201 20.408,48.243 20.312,48.328 C20.106,48.513 20.089,48.828 20.273,49.034 C20.313,49.08 21.281,50.143 22.763,50.143 C24.222,50.143 25.318,49.106 25.364,49.062 C25.563,48.87 25.569,48.554 25.378,48.355 C25.279,48.253 25.148,48.201 25.017,48.201" id="Fill-15" fill="#598EB8" sketch:type="MSShapeGroup"></path>
            <path d="M15.747,44.094 C15.747,45.172 14.872,44.549 13.794,44.549 C12.715,44.549 11.84,45.172 11.84,44.094 C11.84,43.015 12.715,42.14 13.794,42.14 C14.872,42.14 15.747,43.015 15.747,44.094" id="Fill-16" fill="#41443E" sketch:type="MSShapeGroup"></path>
            <path d="M29.779,44.094 C29.779,45.172 30.654,44.549 31.733,44.549 C32.811,44.549 33.686,45.172 33.686,44.094 C33.686,43.015 32.811,42.14 31.733,42.14 C30.654,42.14 29.779,43.015 29.779,44.094" id="Fill-17" fill="#41443E" sketch:type="MSShapeGroup"></path>
            <path d="M15.52,47.554 C15.52,48.155 14.747,48.642 13.794,48.642 C12.84,48.642 12.067,48.155 12.067,47.554 C12.067,46.952 12.84,46.465 13.794,46.465 C14.747,46.465 15.52,46.952 15.52,47.554" id="Fill-18" fill="#F492A6" sketch:type="MSShapeGroup"></path>
            <path d="M30.143,47.554 C30.143,48.155 30.916,48.642 31.869,48.642 C32.822,48.642 33.595,48.155 33.595,47.554 C33.595,46.952 32.822,46.465 31.869,46.465 C30.916,46.465 30.143,46.952 30.143,47.554" id="Fill-19" fill="#F492A6" sketch:type="MSShapeGroup"></path>
            <path d="M21.88,3.401 C21.548,3.401 21.161,3.489 20.778,3.669 C19.914,4.074 19.397,4.794 19.624,5.277 C19.75,5.546 20.079,5.684 20.496,5.684 C20.828,5.684 21.215,5.596 21.598,5.416 C22.463,5.011 22.98,4.291 22.753,3.808 C22.627,3.539 22.297,3.401 21.88,3.401" id="Fill-20" fill="#F8A59D" sketch:type="MSShapeGroup"></path>
        </g>
    </g>
</svg>