<?xml version="1.0" encoding="UTF-8" standalone="no"?>
<svg
   width="64pt"
   height="64pt"
   viewBox="0 0 22.577778 22.577778"
   version="1.1"
   id="svg831"
   inkscape:version="1.1.1 (1:1.1+202109281949+c3084ef5ed)"
   sodipodi:docname="03 - Chef.svg"
   inkscape:export-filename="/media/taufikramadhan/Data/Tr Design Studio/Project Design/TR Creative Design/Icon Design/Project Hiring/Icon Icons/013 - Drinks And Restaurants/Send/3 - Flat/03 - Chef.png"
   inkscape:export-xdpi="576"
   inkscape:export-ydpi="576"
   xmlns:inkscape="http://www.inkscape.org/namespaces/inkscape"
   xmlns:sodipodi="http://sodipodi.sourceforge.net/DTD/sodipodi-0.dtd"
   xmlns="http://www.w3.org/2000/svg"
   xmlns:svg="http://www.w3.org/2000/svg"
   xmlns:rdf="http://www.w3.org/1999/02/22-rdf-syntax-ns#"
   xmlns:cc="http://creativecommons.org/ns#"
   xmlns:dc="http://purl.org/dc/elements/1.1/">
  <defs
     id="defs825">
    <pattern
       id="EMFhbasepattern"
       patternUnits="userSpaceOnUse"
       width="6"
       height="6"
       x="0"
       y="0" />
    <pattern
       id="EMFhbasepattern-9"
       patternUnits="userSpaceOnUse"
       width="6"
       height="6"
       x="0"
       y="0" />
    <pattern
       id="EMFhbasepattern-0"
       patternUnits="userSpaceOnUse"
       width="6"
       height="6"
       x="0"
       y="0" />
    <pattern
       id="EMFhbasepattern-7"
       patternUnits="userSpaceOnUse"
       width="6"
       height="6"
       x="0"
       y="0" />
    <pattern
       id="EMFhbasepattern-2"
       patternUnits="userSpaceOnUse"
       width="6"
       height="6"
       x="0"
       y="0" />
    <pattern
       id="EMFhbasepattern-98"
       patternUnits="userSpaceOnUse"
       width="6"
       height="6"
       x="0"
       y="0" />
    <pattern
       id="EMFhbasepattern-6"
       patternUnits="userSpaceOnUse"
       width="6"
       height="6"
       x="0"
       y="0" />
    <pattern
       id="EMFhbasepattern-01"
       patternUnits="userSpaceOnUse"
       width="6"
       height="6"
       x="0"
       y="0" />
    <pattern
       id="EMFhbasepattern-07"
       patternUnits="userSpaceOnUse"
       width="6"
       height="6"
       x="0"
       y="0" />
    <pattern
       id="EMFhbasepattern-8"
       patternUnits="userSpaceOnUse"
       width="6"
       height="6"
       x="0"
       y="0" />
    <pattern
       id="EMFhbasepattern-4"
       patternUnits="userSpaceOnUse"
       width="6"
       height="6"
       x="0"
       y="0" />
    <pattern
       id="EMFhbasepattern-40"
       patternUnits="userSpaceOnUse"
       width="6"
       height="6"
       x="0"
       y="0" />
    <pattern
       id="EMFhbasepattern-08"
       patternUnits="userSpaceOnUse"
       width="6"
       height="6"
       x="0"
       y="0" />
    <pattern
       id="EMFhbasepattern-04"
       patternUnits="userSpaceOnUse"
       width="6"
       height="6"
       x="0"
       y="0" />
    <pattern
       id="EMFhbasepattern-014"
       patternUnits="userSpaceOnUse"
       width="6"
       height="6"
       x="0"
       y="0" />
    <pattern
       id="EMFhbasepattern-27"
       patternUnits="userSpaceOnUse"
       width="6"
       height="6"
       x="0"
       y="0" />
    <pattern
       id="EMFhbasepattern-09"
       patternUnits="userSpaceOnUse"
       width="6"
       height="6"
       x="0"
       y="0" />
    <pattern
       id="EMFhbasepattern-5"
       patternUnits="userSpaceOnUse"
       width="6"
       height="6"
       x="0"
       y="0" />
    <pattern
       id="EMFhbasepattern-018"
       patternUnits="userSpaceOnUse"
       width="6"
       height="6"
       x="0"
       y="0" />
  </defs>
  <sodipodi:namedview
     id="base"
     pagecolor="#ffffff"
     bordercolor="#666666"
     borderopacity="1.0"
     inkscape:pageopacity="0.0"
     inkscape:pageshadow="2"
     inkscape:zoom="4.6959187"
     inkscape:cx="42.590175"
     inkscape:cy="60.691"
     inkscape:document-units="pt"
     inkscape:current-layer="layer1"
     showgrid="false"
     units="pt"
     inkscape:window-width="1366"
     inkscape:window-height="705"
     inkscape:window-x="0"
     inkscape:window-y="31"
     inkscape:window-maximized="1"
     inkscape:pagecheckerboard="true"
     inkscape:showpageshadow="false"
     inkscape:object-paths="true"
     inkscape:snap-intersection-paths="true"
     inkscape:snap-smooth-nodes="true"
     inkscape:snap-midpoints="true"
     showguides="true"
     inkscape:snap-bbox="true"
     inkscape:bbox-nodes="true"
     inkscape:snap-nodes="false"
     inkscape:snap-global="true"
     inkscape:document-rotation="0"
     inkscape:lockguides="true">
    <inkscape:grid
       type="xygrid"
       id="grid1378" />
    <sodipodi:guide
       position="0.97013831,21.607643"
       orientation="78.000048,0"
       id="guide1380"
       inkscape:locked="true" />
    <sodipodi:guide
       position="0.97013831,0.97013129"
       orientation="0,78.000005"
       id="guide1382"
       inkscape:locked="true" />
    <sodipodi:guide
       position="21.607639,0.97013129"
       orientation="-78.000048,0"
       id="guide1384"
       inkscape:locked="true" />
    <sodipodi:guide
       position="21.607639,21.607643"
       orientation="0,-78.000005"
       id="guide1386"
       inkscape:locked="true" />
  </sodipodi:namedview>
  <metadata
     id="metadata828">
    <rdf:RDF>
      <cc:Work
         rdf:about="">
        <dc:format>image/svg+xml</dc:format>
        <dc:type
           rdf:resource="http://purl.org/dc/dcmitype/StillImage" />
      </cc:Work>
    </rdf:RDF>
  </metadata>
  <g
     inkscape:label="Icon"
     inkscape:groupmode="layer"
     id="layer1"
     transform="translate(0,-274.42223)">
    <g
       id="g440176"
       style="display:inline;stroke-width:0.795195"
       transform="matrix(1.2575539,0,0,1.2575539,0.65546477,-38.771731)">
      <path
         style="color:#000000;fill:#ffa185;stroke-width:0.795195;stroke-linecap:round;stroke-linejoin:round;-inkscape-stroke:none"
         d="m 8.140625,254.28645 -0.2109375,0.0547 A 0.26460996,0.26460996 0 0 0 7.734375,254.6224 l 0.109375,1.14844 a 0.26460996,0.26460996 0 0 0 0.3125,0.23633 c 0.1322676,-0.0248 0.2738413,-0.0515 0.421875,-0.0977 0.4438106,-0.12073 0.7109386,-0.58464 0.5917969,-1.0293 -0.1194044,-0.44568 -0.5836372,-0.71322 -1.0292969,-0.59375 z"
         id="path405577" />
      <path
         style="color:#000000;fill:#ffa185;stroke-width:0.795195;stroke-linecap:round;stroke-linejoin:round;-inkscape-stroke:none"
         d="m 5.3515625,256.66797 a 0.26460996,0.26460996 0 0 0 -0.25,0.17773 l -0.4375,1.25391 a 0.26460996,0.26460996 0 0 0 0.1015625,0.30664 l 1.5488281,1.05859 a 0.26460996,0.26460996 0 0 0 0.2988281,0 l 1.5507813,-1.05859 a 0.26460996,0.26460996 0 0 0 0.099609,-0.30664 l -0.4375,-1.25391 A 0.26460996,0.26460996 0 0 0 7.578125,256.66797 Z"
         id="path405601" />
      <path
         style="color:#000000;fill:#d0e2ee;stroke-width:0.795195;stroke-linecap:round;stroke-linejoin:round;-inkscape-stroke:none"
         d="m 12.107422,256.97266 a 0.26460996,0.26460996 0 0 0 -0.234375,0.0996 c 0,0 -0.657323,0.91951 -0.980469,2.03515 -0.32598,-0.26189 -0.726562,-0.57226 -0.726562,-0.57226 a 0.26460996,0.26460996 0 0 0 -0.04102,-0.0195 l -1.734375,-0.68359 a 0.26460996,0.26460996 0 0 0 -0.1953125,0 c 0,0 -0.2918422,0.1171 -0.6601563,0.23438 -0.368314,0.11728 -0.8225041,0.22852 -1.0703125,0.22851 -0.2478108,0 -0.703951,-0.11123 -1.0722656,-0.22851 -0.3683146,-0.11729 -0.6582031,-0.23438 -0.6582031,-0.23438 a 0.26460996,0.26460996 0 0 0 -0.1953125,0 l -1.7363281,0.68359 a 0.26460996,0.26460996 0 0 0 -0.039063,0.0195 c 0,0 -0.3011131,0.18098 -0.6191406,0.43359 -0.3148025,0.25004 -0.6663784,0.53922 -0.7675782,0.94922 -0.00809,0.0214 -0.2247128,0.58741 -0.1855469,1.36133 0.037948,0.74985 0.3734398,1.69088 1.3046876,2.46093 v 1.69922 c -3e-6,0.43525 0.3577238,0.79297 0.7929687,0.79297 h 6.3496094 c 0.4352456,0 0.7949256,-0.35772 0.7949226,-0.79297 v -3.52734 c 0.150966,-0.0129 0.32218,-0.0176 0.708984,-0.10938 0.52428,-0.12441 1.155218,-0.3402 1.566406,-0.80078 a 0.26460996,0.26460996 0 0 0 0.03906,-0.0586 c 0,0 0.758981,-1.54318 0.470703,-3.65234 a 0.26460996,0.26460996 0 0 0 -0.236328,-0.22852 z"
         id="path405595" />
      <path
         id="path433212"
         style="color:#000000;fill:#a8c2e1;fill-opacity:1;stroke-width:3.00546;stroke-linecap:round;stroke-linejoin:round;-inkscape-stroke:none"
         d="m 12.128906,-66.652344 -2.6953122,6.19336 v 1.113281 l 11.3964842,1.976564 3.404297,0.482422 c 1.616451,0.22904 3.093774,-1.054857 3.09375,-2.6875 v -2.539062 z"
         transform="matrix(0.26458334,0,0,0.26458334,0,280.06666)"
         sodipodi:nodetypes="cccccccc" />
      <path
         style="color:#000000;fill:#d0e2ee;stroke-width:0.795195;stroke-linecap:round;stroke-linejoin:round;-inkscape-stroke:none"
         d="m 3.5117188,261.74023 a 0.26460996,0.26460996 0 0 0 -0.3027344,0.16211 l -0.6425781,1.63868 a 0.26460996,0.26460996 0 0 0 0.203125,0.35742 l 2.7109374,0.45703 a 0.26460996,0.26460996 0 0 0 0.3085938,-0.26172 v -1.30859 A 0.26460996,0.26460996 0 0 0 5.734375,262.625 C 5.5952281,262.44302 5.4011752,262.34668 5.1757812,262.24609 4.9503873,262.14551 4.6925035,262.0567 4.4472656,261.98242 3.9567898,261.83386 3.5117187,261.74023 3.5117188,261.74023 Z"
         id="path405583" />
      <path
         style="color:#000000;fill:#ffa185;stroke-width:0.795195;stroke-linecap:round;stroke-linejoin:round;-inkscape-stroke:none"
         d="m 4.7890625,254.28645 c -0.4456599,-0.11947 -0.9118456,0.14807 -1.03125,0.59375 -0.1192427,0.44503 0.1512337,0.90904 0.5957031,1.0293 6.321e-4,1.7e-4 -6.328e-4,0.002 0,0.002 0.1464671,0.0453 0.2869978,0.0712 0.4179688,0.0957 a 0.26460996,0.26460996 0 0 0 0.3125,-0.23633 l 0.109375,-1.14844 a 0.26460996,0.26460996 0 0 0 -0.1953125,-0.28125 z"
         id="path405571" />
      <path
         style="color:#000000;fill:#ffccbc;stroke-width:0.795195;stroke-linecap:round;stroke-linejoin:round;-inkscape-stroke:none"
         d="m 5.3105465,253.92703 c -0.1298226,-0.1561 -0.3798151,-0.11387 -0.4511719,0.0762 -0.2218559,0.59225 -0.3767827,1.23556 -0.2871094,1.90235 0.07007,0.5207 0.240476,0.92869 0.6113281,1.23242 0.1577109,0.12917 0.3502113,0.24398 0.5625,0.33593 0.5058341,0.24216 0.9860079,0.15743 1.4101563,0.002 0.00461,-0.002 0.00917,-0.004 0.013672,-0.006 0.2158952,-0.0944 0.4125973,-0.20991 0.5664062,-0.32617 0.4000198,-0.30236 0.5472127,-0.70378 0.6191407,-1.23828 7.693e-4,-0.005 0.00142,-0.009 0.00195,-0.0137 0.050907,-0.6163 -0.032874,-1.31358 -0.2929688,-1.90234 -0.036684,-0.0841 -0.1142813,-0.14313 -0.2050747,-0.15611 z"
         id="path405565"
         sodipodi:nodetypes="cccscccsccccc" />
      <path
         id="path415910"
         style="color:#000000;fill:#ffa185;fill-opacity:1;stroke-width:0.795195;stroke-linecap:round;stroke-linejoin:round;-inkscape-stroke:none"
         d="m 7.5354575,253.98918 c 0.2600948,0.58876 0.3439124,1.28643 0.2930054,1.90273 -0.066376,0.51743 -0.2909991,0.9928 -0.6211501,1.2516 -0.1965592,0.13546 -0.3957707,0.25111 -0.5803262,0.33228 -0.1518,0.0556 -0.3106629,0.10239 -0.4754232,0.12816 0.3567618,0.0609 0.695564,-0.0149 1.0045898,-0.12816 0.2103388,-0.0888 0.4100107,-0.21945 0.5803263,-0.33228 0.3855863,-0.38178 0.5934694,-0.79027 0.6211475,-1.2516 0.050907,-0.6163 -0.032911,-1.31397 -0.2930054,-1.90273 -0.036712,-0.0841 -0.1143424,-0.14312 -0.2051557,-0.15606 -0.017815,-0.002 -0.035822,-0.003 -0.053743,-0.002 l 2.7e-6,1e-5 c -0.072693,0.005 -0.14018,0.0394 -0.1865519,0.0956 z"
         sodipodi:nodetypes="cccccccccccccc" />
      <path
         style="color:#000000;fill:#d0e2ee;stroke-width:0.795195;stroke-linecap:round;stroke-linejoin:round;-inkscape-stroke:none"
         d="m 6.109375,249.82617 c -0.5108921,-0.0406 -1.0888595,0.18835 -1.6972656,0.66406 -0.1656266,-0.0209 -0.3430117,-0.0333 -0.5253906,0.0469 a 0.26460996,0.26460996 0 0 0 -0.017578,0.01 c -0.6180133,0.33024 -0.8319387,0.94564 -0.6757812,1.44922 0.1561574,0.50359 0.6482371,0.90039 1.2753906,0.90039 a 0.26460996,0.26460996 0 0 0 0.011719,0 c 0,0 0.016474,-0.002 0.017578,-0.002 0.3159188,0.51457 0.34375,1.17774 0.34375,1.17774 a 0.26460996,0.26460996 0 0 0 0.060547,0.19335 c 0,0 0.046759,0.0514 0.1074219,0.0957 0.060663,0.0443 0.1484932,0.0971 0.2695313,0.14648 0.242076,0.0987 0.6176242,0.18555 1.1855468,0.18555 0.5679227,0 0.9415177,-0.0868 1.1835938,-0.18555 0.121038,-0.0494 0.2088682,-0.10221 0.2695312,-0.14648 0.060663,-0.0443 0.1074219,-0.0957 0.1074219,-0.0957 a 0.26460996,0.26460996 0 0 0 0.041016,-0.0703 c 0.2589025,-0.63897 0.152001,-1.23106 0.125,-1.42969 0.251827,-0.0542 0.5129172,-0.10729 0.734375,-0.25976 0.2827514,-0.19467 0.5,-0.52523 0.5,-0.94336 0,-0.20149 -0.052427,-0.47728 -0.1972657,-0.76367 -0.1448384,-0.28639 -0.3971776,-0.58164 -0.7890625,-0.70508 a 0.26460996,0.26460996 0 0 0 -0.015625,-0.004 c -0.4218566,-0.1034 -0.7382532,0.0836 -1.03125,0.28516 C 7.026543,250.11788 6.6165892,249.8666 6.1093758,249.8263 Z"
         id="path405559" />
      <path
         style="color:#000000;fill:#a8c2e1;stroke-width:0.795195;stroke-linecap:round;stroke-linejoin:round;-inkscape-stroke:none"
         d="m 5.7617187,251.94336 c -0.4549259,0.36174 -1.3046875,0.42578 -1.3046875,0.42578 a 0.2645835,0.2645835 0 0 0 -0.2539062,0.27539 0.2645835,0.2645835 0 0 0 0.2753906,0.25195 c 0,0 0.950962,-0.014 1.6113281,-0.53906 a 0.2645835,0.2645835 0 0 0 0.042969,-0.37109 0.2645835,0.2645835 0 0 0 -0.3710938,-0.043 z"
         id="path405556" />
      <path
         style="color:#000000;fill:#a8c2e1;stroke-width:0.795195;stroke-linecap:round;stroke-linejoin:round;-inkscape-stroke:none"
         d="m 9.1621094,251.29883 a 0.2645835,0.2645835 0 0 0 -0.265625,0.26367 c 0,0.22736 -0.080354,0.35462 -0.2324219,0.47266 -0.1520679,0.11803 -0.3857629,0.20479 -0.6308594,0.25586 -0.4901929,0.10214 -1,0.0664 -1,0.0664 A 0.2645835,0.2645835 0 0 0 6.75,252.60156 a 0.2645835,0.2645835 0 0 0 0.2421875,0.28321 c 0,0 0.5642735,0.0455 1.1484375,-0.0762 0.292082,-0.0609 0.5968403,-0.16079 0.8476563,-0.35547 0.2508159,-0.19467 0.4375,-0.50794 0.4375,-0.89062 a 0.2645835,0.2645835 0 0 0 -0.2636719,-0.26367 z"
         id="path405553" />
      <path
         style="color:#000000;fill:#a8c2e1;stroke-width:0.795195;stroke-linecap:round;stroke-linejoin:round;-inkscape-stroke:none"
         d="m 8.390625,257.83203 a 0.2645835,0.2645835 0 0 0 -0.34375,0.14844 0.2645835,0.2645835 0 0 0 0.1484375,0.34375 l 1.7128906,0.67383 c 0.01614,0.01 0.2658869,0.16313 0.5449219,0.38476 0.287869,0.22865 0.563678,0.55349 0.589844,0.66602 a 0.2645835,0.2645835 0 0 0 0.318359,0.19726 0.2645835,0.2645835 0 0 0 0.197266,-0.31836 c -0.09691,-0.41676 -0.457363,-0.70637 -0.775391,-0.95898 -0.318027,-0.25261 -0.617187,-0.43359 -0.617187,-0.43359 a 0.26460996,0.26460996 0 0 0 -0.04102,-0.0195 z"
         id="path405547" />
      <path
         style="color:#000000;fill:#a8c2e1;stroke-width:0.795195;stroke-linecap:round;stroke-linejoin:round;-inkscape-stroke:none"
         d="m 3.5117188,261.74023 a 0.2645835,0.2645835 0 0 0 -0.3144532,0.20313 0.2645835,0.2645835 0 0 0 0.203125,0.31445 c 0,0 0.4299167,0.0917 0.8945313,0.23242 0.2323073,0.0704 0.4716927,0.15244 0.6640625,0.23829 0.1923698,0.0858 0.3356693,0.1909 0.3554687,0.21679 a 0.2645835,0.2645835 0 0 0 0.3710938,0.0508 0.2645835,0.2645835 0 0 0 0.048828,-0.37109 c -0.1391468,-0.182 -0.3331997,-0.27834 -0.5585937,-0.37893 -0.2253939,-0.10058 -0.4832777,-0.18939 -0.7285156,-0.26367 -0.4904758,-0.14856 -0.9355468,-0.24219 -0.9355468,-0.24219 z"
         id="path405532" />
      <path
         style="color:#000000;fill:#a8c2e1;stroke-width:0.795195;stroke-linecap:round;stroke-linejoin:round;-inkscape-stroke:none"
         d="m 3.5742188,259.80273 a 0.2645835,0.2645835 0 0 0 -0.2265625,0.29883 c 0,0 0.052634,0.37838 0.044922,0.81836 -0.00771,0.43999 -0.1074821,0.92633 -0.2636718,1.09375 a 0.2645835,0.2645835 0 0 0 0.011719,0.375 0.2645835,0.2645835 0 0 0 0.375,-0.0137 c 0.3554282,-0.38098 0.3977021,-0.95762 0.40625,-1.44531 0.00855,-0.48769 -0.048828,-0.90235 -0.048828,-0.90235 A 0.2645835,0.2645835 0 0 0 3.5742194,259.8027 Z"
         id="path405535" />
      <path
         style="color:#000000;fill:#a8c2e1;stroke-width:0.795195;stroke-linecap:round;stroke-linejoin:round;-inkscape-stroke:none"
         d="m 9.375,266.23241 v -4.416 c 0,-0.98906 -0.2925287,-1.83893 -0.6171875,-2.47852 -0.032066,-0.0623 -0.08756,-0.1094 -0.1542969,-0.13086 -0.066485,-0.0216 -0.1388078,-0.016 -0.2011718,0.0156 -0.1305505,0.0658 -0.1830274,0.22495 -0.1171875,0.35546 0.2970046,0.58511 0.5605468,1.35356 0.5605468,2.23829 v 4.416 z"
         id="path405529"
         sodipodi:nodetypes="csccccscc" />
      <path
         style="color:#000000;fill:#3a4d5c;fill-opacity:1;stroke-width:0.795195;stroke-linecap:round;stroke-linejoin:round;-inkscape-stroke:none"
         d="m 8.3183053,263.85102 a 0.2645835,0.2645835 0 0 0 -0.265625,0.26368 0.2645835,0.2645835 0 0 0 0.265625,0.26562 0.2645835,0.2645835 0 0 0 0.263671,-0.26562 0.2645835,0.2645835 0 0 0 -0.263671,-0.26368 z"
         id="path405526" />
      <path
         style="color:#000000;fill:#3a4d5c;fill-opacity:1;stroke-width:0.795195;stroke-linecap:round;stroke-linejoin:round;-inkscape-stroke:none"
         d="m 8.3183053,262.52889 a 0.2645835,0.2645835 0 0 0 -0.265625,0.26368 0.2645835,0.2645835 0 0 0 0.265625,0.26562 0.2645835,0.2645835 0 0 0 0.263671,-0.26562 0.2645835,0.2645835 0 0 0 -0.263671,-0.26368 z"
         id="path405523" />
      <path
         style="color:#000000;fill:#3a4d5c;fill-opacity:1;stroke-width:0.795195;stroke-linecap:round;stroke-linejoin:round;-inkscape-stroke:none"
         d="m 8.3183053,261.20584 a 0.2645835,0.2645835 0 0 0 -0.265625,0.26368 0.2645835,0.2645835 0 0 0 0.265625,0.26562 0.2645835,0.2645835 0 0 0 0.263671,-0.26562 0.2645835,0.2645835 0 0 0 -0.263671,-0.26368 z"
         id="path405520" />
      <path
         style="color:#000000;fill:#3a4d5c;fill-opacity:1;stroke-width:0.795195;stroke-linecap:round;stroke-linejoin:round;-inkscape-stroke:none"
         d="m 8.0526773,259.88228 a 0.2645835,0.2645835 0 0 0 -0.2656245,0.26368 0.2645835,0.2645835 0 0 0 0.2656245,0.26562 0.2645835,0.2645835 0 0 0 0.263671,-0.26562 0.2645835,0.2645835 0 0 0 -0.263671,-0.26368 z"
         id="path405517" />
      <path
         style="color:#000000;fill:#a8c2e1;stroke-width:0.795195;stroke-linecap:round;stroke-linejoin:round;-inkscape-stroke:none"
         d="m 12.919922,257.06445 a 0.2645835,0.2645835 0 0 0 -0.226563,0.29688 c 0.260304,1.90449 -0.37189,3.2335 -0.404296,3.30078 -0.271789,0.28828 -0.886365,0.52184 -1.445313,0.64258 -0.568829,0.12286 -1.0566406,0.15429 -1.0566406,0.15429 a 0.2645835,0.2645835 0 0 0 -0.2460938,0.2793 0.2645835,0.2645835 0 0 0 0.2792969,0.24805 c 0,0 0.5224955,-0.0318 1.1347655,-0.16406 0.61227,-0.13225 1.328667,-0.34398 1.753906,-0.82032 a 0.26460996,0.26460996 0 0 0 0.03906,-0.0586 c 0,0 0.758981,-1.54318 0.470703,-3.65234 a 0.2645835,0.2645835 0 0 0 -0.298828,-0.22657 z"
         id="path405514" />
      <path
         style="color:#000000;fill:#ffccbc;stroke-width:0.795195;stroke-linecap:round;stroke-linejoin:round;-inkscape-stroke:none"
         d="m 11.755859,255.91406 a 0.26460996,0.26460996 0 0 0 -0.263671,0.26367 v 0.73438 c 3e-6,0.32237 0.265515,0.58984 0.58789,0.58984 h 0.875 c 0.1162,0 0.272636,-0.007 0.431641,-0.0332 0.159004,-0.0265 0.325884,-0.0635 0.474609,-0.19141 0.301331,-0.25913 0.541016,-0.66343 0.541016,-1.09961 a 0.26460996,0.26460996 0 0 0 -0.265625,-0.26367 z"
         id="path405508" />
      <path
         style="color:#000000;fill:#5b6571;stroke-width:0.795195;stroke-linecap:round;stroke-linejoin:round;-inkscape-stroke:none"
         d="m 12.814453,253.00391 a 0.2645835,0.2645835 0 0 0 -0.265625,0.26367 v 0.52929 a 0.2645835,0.2645835 0 0 0 0.265625,0.26563 0.2645835,0.2645835 0 0 0 0.263672,-0.26563 v -0.52929 a 0.2645835,0.2645835 0 0 0 -0.263672,-0.26367 z"
         id="path405505" />
      <path
         style="color:#000000;fill:#7d8e9e;stroke-width:0.795195;stroke-linecap:round;stroke-linejoin:round;-inkscape-stroke:none"
         d="m 12.814453,253.5332 c -1.458119,0 -2.646484,1.18642 -2.646484,2.64453 a 0.26460996,0.26460996 0 0 0 0.265625,0.26563 h 4.761719 a 0.26460996,0.26460996 0 0 0 0.265625,-0.26563 c 0,-1.45811 -1.188367,-2.64453 -2.646485,-2.64453 z"
         id="path405499" />
      <path
         id="path427224"
         style="color:#000000;fill:#5b6571;fill-opacity:1;stroke-width:0.795195;stroke-linecap:round;stroke-linejoin:round;-inkscape-stroke:none"
         d="m 12.814205,253.5334 c -0.08919,0 -0.177106,0.004 -0.264066,0.0129 1.334477,0.13329 2.381767,1.26262 2.381767,2.63136 a 0.26460996,0.26460996 0 0 1 -0.265617,0.26562 h 0.529166 a 0.26460996,0.26460996 0 0 0 0.265617,-0.26562 c 0,-1.45811 -1.188749,-2.64428 -2.646867,-2.64428 z" />
      <path
         style="color:#000000;fill:#3a4d5c;stroke-width:0.795195;stroke-linecap:round;stroke-linejoin:round;-inkscape-stroke:none"
         d="m 10.167969,255.91406 a 0.2645835,0.2645835 0 0 0 -0.2636721,0.26367 0.2645835,0.2645835 0 0 0 0.2636721,0.26563 h 5.292969 a 0.2645835,0.2645835 0 0 0 0.263671,-0.26563 0.2645835,0.2645835 0 0 0 -0.263671,-0.26367 z"
         id="path405496" />
      <path
         style="color:#000000;fill:#a8c2e1;stroke-width:0.795195;stroke-linecap:round;stroke-linejoin:round;-inkscape-stroke:none"
         d="m 4.7910156,261.06836 c -0.8515743,0.0335 -1.5214844,0.74219 -1.5214843,0.74219 a 0.2645835,0.2645835 0 0 0 -0.00195,0.375 0.2645835,0.2645835 0 0 0 0.375,0.002 c 0,0 0.6287268,-0.57053 1.1699219,-0.5918 a 0.2645835,0.2645835 0 0 0 0.2539062,-0.27343 0.2645835,0.2645835 0 0 0 -0.2753906,-0.25391 z"
         id="path405493" />
      <path
         id="path405550"
         style="color:#000000;fill:#dc1c4b;stroke-width:3.00546;stroke-linecap:round;stroke-linejoin:round;-inkscape-stroke:none"
         d="m 16.041016,-84.953125 c -0.04907,-9.56e-4 -0.09917,0.0034 -0.148438,0.0098 v -0.002 c -0.263686,0.03401 -0.502455,0.173641 -0.664062,0.384765 -0.331518,0.436951 -0.248181,1.058796 0.185546,1.394531 1.422954,1.094438 3.565271,1.719202 5.431641,2.177735 0.466593,0.114642 0.91619,0.214925 1.326172,0.300781 -0.2674,0.223152 -0.52513,0.470702 -0.757813,0.748047 -0.466597,0.55612 -0.855468,1.26838 -0.855468,2.111328 -0.0022,0.55534 0.448566,1.006079 1.003906,1.003906 0.552286,-0.0022 0.998255,-0.45162 0.996094,-1.003906 0.312105,-1.095513 1.301841,-1.658777 2.236328,-2.203125 1.159974,0.54143 2.107069,1.237573 2.591797,2.386719 -0.0022,0.55534 0.448566,1.006079 1.003906,1.003906 0.552286,-0.0022 0.998255,-0.45162 0.996094,-1.003906 0,-0.842948 -0.381059,-1.555171 -0.847657,-2.111328 -0.353794,-0.421675 -0.765039,-0.77425 -1.18164,-1.076172 0.213254,-0.04838 0.432358,-0.101235 0.65625,-0.15625 1.86637,-0.458533 4.018453,-1.083297 5.441406,-2.177735 0.43134,-0.337889 0.510914,-0.959469 0.177734,-1.394531 -0.159858,-0.209386 -0.397182,-0.348255 -0.658203,-0.384765 -0.262733,-0.03402 -0.528316,0.03783 -0.738281,0.199218 -0.873176,0.671584 -2.935831,1.382668 -4.701172,1.816406 -2.194103,0.819841 -4.34003,0.454658 -6.208984,0 -1.765341,-0.433738 -3.822135,-1.142868 -4.695313,-1.814453 -0.170595,-0.131126 -0.377197,-0.204842 -0.589843,-0.208984 z"
         transform="matrix(0.26458334,0,0,0.26458334,0,280.06666)"
         sodipodi:nodetypes="sccccscccscccscccccccccccss" />
      <path
         id="path421750"
         style="color:#000000;fill:#a8c2e1;fill-opacity:1;stroke-width:0.795195;stroke-linecap:round;stroke-linejoin:round;-inkscape-stroke:none"
         d="m 7.6620647,252.766 c 0.027001,0.19863 0.1338455,0.7904 -0.1250569,1.42937 -0.025846,0.0781 -0.1053836,0.12543 -0.1483114,0.1664 -0.060663,0.0443 -0.1481962,0.0968 -0.2692342,0.14624 -0.2022468,0.0825 -0.4968471,0.15612 -0.9193238,0.17829 0.083384,0.004 0.1710201,0.007 0.2645834,0.007 0.5679227,0 0.9418309,-0.0868 1.183907,-0.18552 0.1867389,-0.086 0.3239585,-0.1696 0.4175456,-0.31264 0.2589025,-0.63897 0.1520579,-1.23074 0.1250569,-1.42937 z"
         sodipodi:nodetypes="cccccscccc" />
      <path
         id="path429007"
         style="color:#000000;fill:#ffa185;fill-opacity:1;stroke-width:3.00546;stroke-linecap:round;stroke-linejoin:round;-inkscape-stroke:none"
         d="m 43.435547,-89.285156 v 1.771484 c 10e-7,0.07681 0.0039,0.153558 0.01172,0.228516 h 9.982422 c 0.415924,-0.595283 0.733989,-1.275649 0.892578,-2 z"
         transform="matrix(0.26458334,0,0,0.26458334,0,280.06666)" />
      <path
         style="color:#000000;fill:#ffccbc;stroke-width:0.795195;stroke-linecap:round;stroke-linejoin:round;-inkscape-stroke:none"
         d="m 6.4121094,262.39258 -0.9238282,0.13086 a 0.26460996,0.26460996 0 0 0 -0.2285156,0.26172 v 1.30859 a 0.26460996,0.26460996 0 0 0 0.2285156,0.26172 l 0.9238282,0.13086 c 0.4276859,0.0606 0.8183656,-0.27897 0.8183593,-0.71094 v -0.67187 c 6.3e-6,-0.43198 -0.3906638,-0.77156 -0.8183593,-0.71094 z"
         id="path405589" />
      <path
         id="path435324"
         style="color:#000000;fill:#ffa185;fill-opacity:1;stroke-width:0.795195;stroke-linecap:round;stroke-linejoin:round;-inkscape-stroke:none"
         d="m 6.5117473,262.38557 c -0.032793,0 -0.066322,0.002 -0.099735,0.007 l -0.9239746,0.13074 a 0.26460996,0.26460996 0 0 0 -0.2284099,0.26149 v 0.22531 l 0.6232178,-0.0884 c 0.4276955,-0.0606 0.818561,0.27857 0.8185547,0.71055 v 0.67179 c 9e-7,0.0578 -0.007,0.11418 -0.020154,0.16795 0.3094883,-0.077 0.5493254,-0.35871 0.5493205,-0.69711 v -0.6718 c 5.8e-6,-0.39823 -0.3318606,-0.71775 -0.7188192,-0.71778 z" />
    </g>
  </g>
</svg>
